<?xml version="1.0" encoding="utf-8"?>
<!-- Generator: Adobe Illustrator 18.0.0, SVG Export Plug-In . SVG Version: 6.00 Build 0)  -->
<!DOCTYPE svg PUBLIC "-//W3C//DTD SVG 1.1//EN" "http://www.w3.org/Graphics/SVG/1.1/DTD/svg11.dtd">
<svg version="1.1" id="Layer_1" xmlns="http://www.w3.org/2000/svg" xmlns:xlink="http://www.w3.org/1999/xlink" x="0px" y="0px"
	 width="93px" height="93px" viewBox="0 0 93 93" style="enable-background:new 0 0 93 93;" xml:space="preserve">
<path style="fill:#8B8A8A;" d="M46.1,46L46.1,46l28.9-11.9c-1.6-3.8-3.9-7.3-6.8-10.2L46.1,46L46.1,46z"/>
<path style="fill:#8B8A8A;" d="M46.1,46h31.2c0-4.2-0.8-8.2-2.4-11.9L46.1,46L46.1,46z"/>
<path style="fill:#8B8A8A;" d="M46.1,46l28.8,12c1.5-3.7,2.4-7.7,2.4-12H46.1z"/>
<path style="fill:#8B8A8A;" d="M68.2,23.9c-2.9-2.9-6.3-5.2-10.1-6.8L46.1,46L68.2,23.9z"/>
<path style="fill:#8B8A8A;" d="M46.1,46l12-28.8c-3.7-1.5-7.7-2.4-12-2.4V46L46.1,46z"/>
<path style="fill:#8B8A8A;" d="M46.1,46V14.8c-4.2,0-8.2,0.8-11.9,2.4L46.1,46L46.1,46z"/>
<path style="fill:#8B8A8A;" d="M34.2,17.2c-3.8,1.6-7.3,3.9-10.2,6.8L46.1,46L34.2,17.2z"/>
<path style="fill:#8B8A8A;" d="M46.1,46L24,23.9c-2.9,2.9-5.2,6.3-6.8,10.1L46.1,46L46.1,46z"/>
<path style="fill:#8B8A8A;" d="M46.1,46L46.1,46l-28.8-12c-1.5,3.7-2.4,7.7-2.4,12H46.1L46.1,46z"/>
<path style="fill:#8B8A8A;" d="M46.1,46H14.9c0,4.2,0.8,8.2,2.4,11.9L46.1,46L46.1,46z"/>
</svg>
