<?xml version="1.0" encoding="utf-8"?>
<!-- Generator: Adobe Illustrator 18.0.0, SVG Export Plug-In . SVG Version: 6.00 Build 0)  -->
<!DOCTYPE svg PUBLIC "-//W3C//DTD SVG 1.1//EN" "http://www.w3.org/Graphics/SVG/1.1/DTD/svg11.dtd">
<svg version="1.1" id="Layer_1" xmlns="http://www.w3.org/2000/svg" xmlns:xlink="http://www.w3.org/1999/xlink" x="0px" y="0px"
	 width="93px" height="93px" viewBox="0 0 93 93" style="enable-background:new 0 0 93 93;" xml:space="preserve">
<path style="fill:none;stroke:#F7F7F7;stroke-width:2;stroke-linecap:round;stroke-linejoin:round;stroke-miterlimit:10;" d="
	M24.3,26.3L21,23c-3.3,3.3-6,7.2-7.8,11.6l4.3,1.8C19.2,32.6,21.5,29.2,24.3,26.3z"/>
<path style="fill:none;stroke:#F7F7F7;stroke-width:2;stroke-linecap:round;stroke-linejoin:round;stroke-miterlimit:10;" d="
	M46.4,17.2v-4.7c-4.9,0-9.5,1-13.7,2.7l1.8,4.3C38.2,18,42.2,17.2,46.4,17.2z"/>
<path style="fill:none;stroke:#F7F7F7;stroke-width:2;stroke-linecap:round;stroke-linejoin:round;stroke-miterlimit:10;" d="
	M68.5,26.3l3.3-3.3c-3.3-3.3-7.2-6-11.6-7.8l-1.8,4.3C62.2,21.1,65.6,23.4,68.5,26.3z"/>
<path style="fill:none;stroke:#F7F7F7;stroke-width:2;stroke-linecap:round;stroke-linejoin:round;stroke-miterlimit:10;" d="
	M34.5,19.5l-1.8-4.3C28.3,17,24.4,19.7,21,23l3.3,3.3C27.2,23.4,30.7,21.1,34.5,19.5z"/>
<path style="fill:none;stroke:#F7F7F7;stroke-width:2;stroke-linecap:round;stroke-linejoin:round;stroke-miterlimit:10;" d="
	M58.4,19.5l1.8-4.3c-4.2-1.8-8.9-2.7-13.8-2.7v4.7C50.7,17.2,54.7,18,58.4,19.5z"/>
<path style="fill:none;stroke:#F7F7F7;stroke-width:2;stroke-linecap:round;stroke-linejoin:round;stroke-miterlimit:10;" d="
	M75.3,36.4l4.3-1.8c-1.8-4.4-4.5-8.4-7.8-11.7l-3.3,3.3C71.4,29.2,73.7,32.6,75.3,36.4z"/>
<path style="fill:none;stroke:#F7F7F7;stroke-width:2;stroke-linecap:round;stroke-linejoin:round;stroke-miterlimit:10;" d="
	M77.6,48.4h4.7c0-4.9-1-9.5-2.7-13.7l-4.3,1.8C76.8,40.1,77.6,44.1,77.6,48.4z"/>
<path style="fill:none;stroke:#F7F7F7;stroke-width:2;stroke-linecap:round;stroke-linejoin:round;stroke-miterlimit:10;" d="
	M75.3,60.3l4.3,1.8c1.8-4.2,2.7-8.9,2.7-13.8h-4.7C77.6,52.6,76.8,56.7,75.3,60.3z"/>
<path style="fill:none;stroke:#F7F7F7;stroke-width:2;stroke-linecap:round;stroke-linejoin:round;stroke-miterlimit:10;" d="
	M17.6,36.4l-4.3-1.8c-1.8,4.2-2.7,8.9-2.7,13.8h4.7C15.2,44.1,16.1,40.1,17.6,36.4z"/>
<path style="fill:none;stroke:#F7F7F7;stroke-width:2;stroke-linecap:round;stroke-linejoin:round;stroke-miterlimit:10;" d="
	M15.2,48.4h-4.7c0,4.9,1,9.5,2.7,13.7l4.3-1.8C16,56.6,15.2,52.6,15.2,48.4z"/>
<path style="fill:none;stroke:#F7F7F7;stroke-width:2;stroke-linecap:round;stroke-linejoin:round;stroke-miterlimit:10;" d="
	M46.4,48.4L46.4,48.4l28.9-11.9c-1.6-3.8-3.9-7.3-6.8-10.2L46.4,48.4L46.4,48.4z"/>
<polygon style="fill:none;stroke:#F7F7F7;stroke-width:2;stroke-linecap:round;stroke-linejoin:round;stroke-miterlimit:10;" points="
	46.4,48.4 46.4,48.4 46.4,48.4 "/>
<polygon style="fill:none;stroke:#F7F7F7;stroke-width:2;stroke-linecap:round;stroke-linejoin:round;stroke-miterlimit:10;" points="
	46.4,48.4 46.4,48.4 46.4,48.4 "/>
<polygon style="fill:none;stroke:#F7F7F7;stroke-width:2;stroke-linecap:round;stroke-linejoin:round;stroke-miterlimit:10;" points="
	46.4,48.4 46.4,48.4 46.4,48.4 "/>
<polygon style="fill:none;stroke:#F7F7F7;stroke-width:2;stroke-linecap:round;stroke-linejoin:round;stroke-miterlimit:10;" points="
	46.4,48.4 46.4,48.4 46.4,48.4 "/>
<path style="fill:none;stroke:#F7F7F7;stroke-width:2;stroke-linecap:round;stroke-linejoin:round;stroke-miterlimit:10;" d="
	M46.4,48.4h31.2c0-4.2-0.8-8.2-2.4-11.9L46.4,48.4L46.4,48.4z"/>
<rect x="46.4" y="48.4" style="fill:none;stroke:#F7F7F7;stroke-width:2;stroke-linecap:round;stroke-linejoin:round;stroke-miterlimit:10;" width="0" height="0"/>
<polygon style="fill:none;stroke:#F7F7F7;stroke-width:2;stroke-linecap:round;stroke-linejoin:round;stroke-miterlimit:10;" points="
	46.4,48.4 46.4,48.4 46.4,48.4 "/>
<polygon style="fill:none;stroke:#F7F7F7;stroke-width:2;stroke-linecap:round;stroke-linejoin:round;stroke-miterlimit:10;" points="
	46.4,48.4 46.4,48.4 46.4,48.4 "/>
<polygon style="fill:none;stroke:#F7F7F7;stroke-width:2;stroke-linecap:round;stroke-linejoin:round;stroke-miterlimit:10;" points="
	46.4,48.4 46.4,48.4 46.4,48.4 "/>
<polygon style="fill:none;stroke:#F7F7F7;stroke-width:2;stroke-linecap:round;stroke-linejoin:round;stroke-miterlimit:10;" points="
	46.4,48.4 46.4,48.4 46.4,48.4 "/>
<rect x="46.4" y="48.4" style="fill:none;stroke:#F7F7F7;stroke-width:2;stroke-linecap:round;stroke-linejoin:round;stroke-miterlimit:10;" width="0" height="0"/>
<polygon style="fill:none;stroke:#F7F7F7;stroke-width:2;stroke-linecap:round;stroke-linejoin:round;stroke-miterlimit:10;" points="
	46.4,48.4 46.4,48.4 46.4,48.4 "/>
<polygon style="fill:none;stroke:#F7F7F7;stroke-width:2;stroke-linecap:round;stroke-linejoin:round;stroke-miterlimit:10;" points="
	46.4,48.4 46.4,48.4 46.4,48.4 "/>
<path style="fill:none;stroke:#F7F7F7;stroke-width:2;stroke-linecap:round;stroke-linejoin:round;stroke-miterlimit:10;" d="
	M46.4,48.4L24.3,26.3c-2.9,2.9-5.2,6.3-6.8,10.1L46.4,48.4L46.4,48.4z"/>
<path style="fill:none;stroke:#F7F7F7;stroke-width:2;stroke-linecap:round;stroke-linejoin:round;stroke-miterlimit:10;" d="
	M46.4,48.4l28.8,12c1.5-3.7,2.4-7.7,2.4-12H46.4z"/>
<path style="fill:none;stroke:#F7F7F7;stroke-width:2;stroke-linecap:round;stroke-linejoin:round;stroke-miterlimit:10;" d="
	M68.5,26.3c-2.9-2.9-6.3-5.2-10.1-6.8l-12,28.8L68.5,26.3z"/>
<path style="fill:none;stroke:#F7F7F7;stroke-width:2;stroke-linecap:round;stroke-linejoin:round;stroke-miterlimit:10;" d="
	M46.4,48.4V17.2c-4.2,0-8.2,0.8-11.9,2.4L46.4,48.4L46.4,48.4z"/>
<path style="fill:none;stroke:#F7F7F7;stroke-width:2;stroke-linecap:round;stroke-linejoin:round;stroke-miterlimit:10;" d="
	M34.5,19.5c-3.8,1.6-7.3,3.9-10.2,6.8l22.1,22.1L34.5,19.5z"/>
<path style="fill:none;stroke:#F7F7F7;stroke-width:2;stroke-linecap:round;stroke-linejoin:round;stroke-miterlimit:10;" d="
	M46.4,48.4l12-28.8c-3.7-1.5-7.7-2.4-12-2.4V48.4L46.4,48.4z"/>
<path style="fill:none;stroke:#F7F7F7;stroke-width:2;stroke-linecap:round;stroke-linejoin:round;stroke-miterlimit:10;" d="
	M46.4,48.4H15.2c0,4.2,0.8,8.2,2.4,11.9L46.4,48.4L46.4,48.4z"/>
<path style="fill:none;stroke:#F7F7F7;stroke-width:2;stroke-linecap:round;stroke-linejoin:round;stroke-miterlimit:10;" d="
	M46.4,48.4L46.4,48.4l-28.8-12c-1.5,3.7-2.4,7.7-2.4,12H46.4L46.4,48.4z"/>
<line style="fill:none;stroke:#F7F7F7;stroke-width:6;stroke-miterlimit:10;" x1="17.6" y1="36.4" x2="13.3" y2="34.6"/>
<g>
	<polyline style="fill:#FFFFFF;stroke:#F7F7F7;stroke-miterlimit:10;" points="13.3,62.1 12.1,59.3 16.4,57.5 17.6,60.3 	"/>
</g>
<line style="fill:none;stroke:#F7F7F7;stroke-width:6;stroke-miterlimit:10;" x1="32.7" y1="15.2" x2="34.5" y2="19.5"/>
<line style="fill:none;stroke:#F7F7F7;stroke-width:6;stroke-miterlimit:10;" x1="60.2" y1="15.2" x2="58.4" y2="19.5"/>
<line style="fill:none;stroke:#F7F7F7;stroke-width:6;stroke-miterlimit:10;" x1="79.6" y1="34.7" x2="75.3" y2="36.4"/>
<g>
	<polyline style="fill:#FFFFFF;stroke:#F7F7F7;stroke-miterlimit:10;" points="75.3,60.3 76.4,57.6 80.7,59.4 79.6,62.1 	"/>
</g>
</svg>
