<?xml version="1.0" encoding="utf-8"?>
<!-- Generator: Adobe Illustrator 18.0.0, SVG Export Plug-In . SVG Version: 6.00 Build 0)  -->
<!DOCTYPE svg PUBLIC "-//W3C//DTD SVG 1.1//EN" "http://www.w3.org/Graphics/SVG/1.1/DTD/svg11.dtd">
<svg version="1.1" id="Layer_1" xmlns="http://www.w3.org/2000/svg" xmlns:xlink="http://www.w3.org/1999/xlink" x="0px" y="0px"
	 width="40px" height="12px" viewBox="0 0 40 12" style="enable-background:new 0 0 40 12;" xml:space="preserve">
<g>
	<path style="fill:#FDC634;" d="M34.1,7c0,0,0,0.1-0.1,0.2c-0.1,0.1-0.2,0.2-0.3,0.4c-0.2,0.3-0.6,0.6-1,0.6c-0.9,0-2.2,0-3.7,0
		c-1.5,0-3.3,0-5.2-0.1c-1.9-0.1-3.9-0.1-6-0.2c-2-0.1-4.1-0.1-6-0.3C10,7.7,8.2,7.5,6.7,7.4C3.6,7.2,1.6,7,1.6,7
		C1,6.9,0.6,6.4,0.7,5.9C0.7,5.4,1.1,5,1.6,5c0,0,2-0.2,5.1-0.4c1.5-0.1,3.3-0.2,5.2-0.3c1.9-0.1,3.9-0.2,6-0.3c2-0.1,4.1-0.1,6-0.2
		c1.9-0.1,3.7,0,5.2-0.1c1.5,0,2.8,0,3.7,0c0.4,0,0.8,0.3,1,0.6c0.1,0.2,0.2,0.3,0.3,0.4C34.1,4.9,34.1,5,34.1,5
		C34.4,5.7,34.4,6.4,34.1,7z"/>
</g>
<circle style="fill:#FDC634;" cx="34.1" cy="6" r="5.7"/>
</svg>
