<?xml version="1.0" encoding="utf-8"?>
<!-- Generator: Adobe Illustrator 19.2.1, SVG Export Plug-In . SVG Version: 6.00 Build 0)  -->
<svg version="1.1" id="Layer_1" xmlns="http://www.w3.org/2000/svg" xmlns:xlink="http://www.w3.org/1999/xlink" x="0px" y="0px"
	 viewBox="0 0 365.6 321.1" style="enable-background:new 0 0 365.6 321.1;" xml:space="preserve">
<style type="text/css">
	.st0{fill:#0965DA;}
	.st1{fill:#25FFC4;}
	.st2{fill:#8037EB;}
	.st3{fill:#0D4CD1;}
	.st4{fill:#6F1BE7;}
	.st5{fill:#1859D4;}
	.st6{fill:#50FFC7;}
</style>
<g>
	<path class="st0" d="M97.1,297.5c-15.9,0-28.8-12.9-28.8-28.7c0-15.9,12.9-28.8,28.8-28.8s28.8,12.9,28.8,28.8
		C125.8,284.6,112.9,297.5,97.1,297.5z M97.1,244c-13.7,0-24.8,11.1-24.8,24.8c0,13.7,11.1,24.8,24.8,24.8
		c13.6,0,24.8-11.1,24.8-24.8C121.9,255.1,110.7,244,97.1,244z"/>
	<path class="st0" d="M263.9,89.4c-0.5,0-1-0.2-1.4-0.6l-31.4-31.4c-0.4-0.4-0.6-0.9-0.6-1.4s0.2-1,0.6-1.4l31.4-31.4
		c0.8-0.8,2-0.8,2.8,0l31.4,31.4c0.8,0.8,0.8,2,0,2.8l-31.4,31.4C264.9,89.2,264.4,89.4,263.9,89.4z M235.3,56l28.6,28.6L292.5,56
		l-28.6-28.6L235.3,56z"/>
	<path class="st1" d="M231.7,114.3c-1.1,0-2-0.9-2-2V84.4H201c-1.1,0-2-0.9-2-2s0.9-2,2-2h30.7c1.1,0,2,0.9,2,2v29.9
		C233.7,113.4,232.8,114.3,231.7,114.3z"/>
	<path class="st0" d="M213.8,253h-35c-0.7,0-1.4-0.4-1.7-1c-0.4-0.6-0.4-1.4,0-2l17.5-30.3c0.4-0.6,1-1,1.7-1s1.4,0.4,1.7,1
		l17.5,30.3c0.4,0.6,0.4,1.4,0,2C215.2,252.7,214.5,253,213.8,253z M182.3,249h28.1l-14-24.3L182.3,249z"/>
	<path class="st0" d="M152.3,165.2h-35c-0.7,0-1.4-0.4-1.7-1c-0.4-0.6-0.4-1.4,0-2l17.5-30.3c0.4-0.6,1-1,1.7-1l0,0
		c0.7,0,1.4,0.4,1.7,1l17.5,30.3c0.4,0.6,0.4,1.4,0,2C153.7,164.8,153,165.2,152.3,165.2z M120.8,161.2h28.1l-14-24.3L120.8,161.2z"
		/>
	<path class="st0" d="M268.8,169.2h-35c-0.7,0-1.4-0.4-1.7-1c-0.4-0.6-0.4-1.4,0-2l17.5-30.3c0.4-0.6,1-1,1.7-1l0,0
		c0.7,0,1.4,0.4,1.7,1l17.5,30.3c0.4,0.6,0.4,1.4,0,2C270.2,168.8,269.6,169.2,268.8,169.2z M237.3,165.2h28.1l-14-24.3L237.3,165.2
		z"/>
	<path class="st1" d="M134.8,245.7c-0.8,0-1.5-0.5-1.9-1.3c-0.4-1,0.1-2.2,1.1-2.6c21.6-8.7,31.3-33.7,35.1-47.7
		c1.9-7.1,3.4-14.5,4.9-21.7c2.7-13.3,5.4-27,11.2-39.6c7.3-16.2,19.6-30.9,36.4-43.7c0.9-0.7,2.1-0.5,2.8,0.4s0.5,2.1-0.4,2.8
		c-16.2,12.4-28.1,26.5-35.1,42.2c-5.5,12.2-8.2,25.7-10.9,38.7c-1.5,7.2-3,14.7-5,22c-8.9,32.7-25.3,45.5-37.5,50.4
		C135.3,245.6,135.1,245.7,134.8,245.7z"/>
	<g>
		<path class="st2" d="M97.8,258.5l6,16.8h-2.2l-1.5-4.5h-6.6l-1.5,4.5h-2.2l6-16.8H97.8z M94.2,268.8h5.1l-2.6-7.6L94.2,268.8z"/>
	</g>
	<g>
		<path class="st2" d="M264.3,46.7c3,0,4.8,1.6,4.8,4.3c0,1.5-0.9,2.7-1.9,3.3c1.6,0.6,2.8,2.1,2.8,4.2c0,3.1-2,5-5.2,5h-6.3V46.7
			H264.3z M260.5,48.7v4.9h3.7c1.6,0,2.6-0.8,2.6-2.4c0-1.6-1.1-2.4-2.6-2.4h-3.7V48.7z M260.5,61.5h3.9c2.2,0,3.4-0.9,3.4-3
			c0-2-1.1-3-3.4-3h-3.9V61.5z"/>
	</g>
</g>
</svg>
