<?xml version="1.0" encoding="utf-8"?>
<!-- Generator: Adobe Illustrator 19.2.1, SVG Export Plug-In . SVG Version: 6.00 Build 0)  -->
<svg version="1.1" id="Layer_1" xmlns="http://www.w3.org/2000/svg" xmlns:xlink="http://www.w3.org/1999/xlink" x="0px" y="0px"
	 viewBox="0 0 365.6 321.1" style="enable-background:new 0 0 365.6 321.1;" xml:space="preserve">
<style type="text/css">
	.st0{fill:#0965DA;}
	.st1{fill:#25FFC4;}
	.st2{fill:#8037EB;}
	.st3{fill:#0D4CD1;}
	.st4{fill:#6F1BE7;}
	.st5{fill:#1859D4;}
	.st6{fill:#50FFC7;}
</style>
<g>
	<path class="st5" d="M182.8,33.5c69.9,0,126.5,56.6,126.5,126.5s-56.6,126.5-126.5,126.5S56.3,229.9,56.3,160
		S112.9,33.5,182.8,33.5 M182.8,29.5c-34.9,0-67.6,13.6-92.3,38.2C65.9,92.4,52.3,125.1,52.3,160s13.6,67.6,38.2,92.3
		c24.6,24.6,57.4,38.2,92.3,38.2s67.6-13.6,92.3-38.2s38.2-57.4,38.2-92.3s-13.6-67.6-38.2-92.3C250.4,43.1,217.7,29.5,182.8,29.5
		L182.8,29.5z"/>
	<path class="st6" d="M219.9,125.8c38.8,0,70.2,31.4,70.2,70.2s-31.4,70.2-70.2,70.2s-70.2-31.4-70.2-70.2S181.1,125.8,219.9,125.8
		 M219.9,121.8c-40.9,0-74.2,33.3-74.2,74.2s33.3,74.2,74.2,74.2s74.2-33.3,74.2-74.2S260.8,121.8,219.9,121.8L219.9,121.8z"/>
	<g>
		<path class="st2" d="M93.1,110.4h11.5v1.8h-4.8v13.6h-1.9v-13.6h-4.8V110.4z"/>
		<path class="st2" d="M119,120.6h-8.7c0.1,2.2,1.5,3.7,3.4,3.7c1.7,0,2.8-0.8,3.6-2.2l1.5,0.8c-1.2,2.3-3,3.1-5,3.1
			c-3.2,0-5.3-2.5-5.3-5.7c0-3.1,2-5.7,5.3-5.7c3.4,0,5.3,2.4,5.3,5.3v0.7H119z M110.4,118.9h6.6c-0.3-1.8-1.5-2.8-3.3-2.8
			C111.9,116.2,110.8,117.3,110.4,118.9z"/>
		<path class="st2" d="M133,125.8h-1.5l-0.2-1.6c-0.7,1-2.3,1.7-3.9,1.7c-1.8,0-3.4-1.1-3.4-3.4c0-2.5,2-3.6,5-3.6h2.2v-0.5
			c0-1.7-1.2-2.3-2.6-2.3c-1.3,0-2.3,0.8-2.6,1.9l-1.6-0.4c0.5-1.9,2.2-3.1,4.2-3.1c2.6,0,4.4,1.2,4.4,4.3V125.8z M127.6,124.3
			c1.4,0,3.5-0.9,3.5-3.4v-0.4h-2.4c-1.9,0-2.9,0.8-2.9,2C125.8,123.6,126.5,124.3,127.6,124.3z"/>
		<path class="st2" d="M149.2,125.8h-1.9v-7.9c0-1.2-0.4-1.7-1.2-1.7c-1.1,0-2,1.3-2,4.4v5.2h-1.8v-7.9c0-1.2-0.4-1.7-1.2-1.7
			c-1.1,0-2,1.3-2,4.4v5.2h-1.8v-11.1h1.8v1.4c0.6-0.9,1.5-1.6,2.6-1.6c1.3,0,2,0.7,2.3,1.8c0.6-1.1,1.6-1.8,2.7-1.8
			c1.4,0,2.4,0.9,2.4,3L149.2,125.8L149.2,125.8z"/>
	</g>
	<g>
		<path class="st2" d="M190.3,199.2c-0.7,2.7-2.6,4.7-5.5,4.7c-3.5,0-6.4-2.6-6.4-7.9c0-5.3,2.9-7.9,6.4-7.9c3,0,4.8,2,5.5,4.7
			l-1.8,0.5c-0.7-2.2-1.8-3.4-3.7-3.4c-2.6,0-4.4,1.8-4.4,6s1.7,6,4.4,6c1.9,0,3-1.1,3.7-3.4L190.3,199.2z"/>
		<path class="st2" d="M193.4,190v-1.7h4.9v11.2c0,1.8,0.8,2.7,2.3,2.7c1.3,0,2.3-0.8,2.6-2.7l1.7,0.3c-0.4,2.7-2,4-4.2,4
			c-2.6,0-4.2-1.6-4.2-4.4v-9.5L193.4,190L193.4,190z"/>
		<path class="st2" d="M209.6,192.7h5.2v9.5h4.1v1.6h-9.8v-1.6h3.8v-7.8h-3.4L209.6,192.7L209.6,192.7z M213.8,188.2
			c0.9,0,1.5,0.7,1.5,1.5s-0.7,1.5-1.5,1.5s-1.5-0.7-1.5-1.5S213,188.2,213.8,188.2z"/>
		<path class="st2" d="M233.8,198.6h-8.7c0.1,2.2,1.5,3.7,3.4,3.7c1.7,0,2.8-0.8,3.6-2.2l1.5,0.8c-1.2,2.3-3,3.1-5,3.1
			c-3.2,0-5.3-2.5-5.3-5.7c0-3.1,2-5.7,5.3-5.7c3.4,0,5.3,2.4,5.3,5.3v0.7H233.8z M225.2,196.9h6.6c-0.3-1.8-1.5-2.8-3.3-2.8
			C226.7,194.2,225.6,195.3,225.2,196.9z"/>
		<path class="st2" d="M247.7,203.8h-1.8v-7.3c0-1.5-0.7-2.3-2-2.3c-1.7,0-3.3,1.9-3.3,5.1v4.5h-1.8v-11.1h1.8v2
			c0.8-1.3,2.2-2.2,3.8-2.2c2.3,0,3.4,1.4,3.4,3.5L247.7,203.8L247.7,203.8z"/>
		<path class="st2" d="M252.5,192.7h2.9v-3.3l1.8-1.2v4.5h5.4v1.7h-5.4v5.7c0,1.5,0.7,2.2,1.9,2.2c1,0,1.8-0.3,2.7-1.3l0.7,1.6
			c-1,1-2,1.4-3.4,1.4c-2.4,0-3.8-1.3-3.8-3.9v-5.7h-2.9v-1.7H252.5z"/>
	</g>
</g>
</svg>
