<?xml version="1.0" encoding="utf-8"?>
<!-- Generator: Adobe Illustrator 19.2.1, SVG Export Plug-In . SVG Version: 6.00 Build 0)  -->
<svg version="1.1" id="Layer_1" xmlns="http://www.w3.org/2000/svg" xmlns:xlink="http://www.w3.org/1999/xlink" x="0px" y="0px"
	 viewBox="0 0 365.6 321.1" style="enable-background:new 0 0 365.6 321.1;" xml:space="preserve">
<style type="text/css">
	.st0{fill:#0965DA;}
	.st1{fill:#25FFC4;}
	.st2{fill:#8037EB;}
	.st3{fill:#0D4CD1;}
	.st4{fill:#6F1BE7;}
	.st5{fill:#1859D4;}
	.st6{fill:#50FFC7;}
</style>
<g>
	<path class="st3" d="M178.9,194.8c-50.4,0-91.4-53.4-91.4-119c0-1.1,0.9-2,2-2h178.8c1.1,0,2,0.9,2,2
		C270.4,141.4,229.2,194.8,178.9,194.8z M91.5,77.8c0.8,62.5,39.7,113,87.4,113s86.6-50.5,87.4-113H91.5z"/>
	<path class="st3" d="M178.9,245c-1.1,0-2-0.9-2-2v-47.8c0-1.1,0.9-2,2-2s2,0.9,2,2V243C180.9,244.1,179.9,245,178.9,245z"/>
	<path class="st3" d="M223.2,253.7h-88.7c-1.1,0-2-0.9-2-2s0.9-2,2-2h88.7c1.1,0,2,0.9,2,2S224.4,253.7,223.2,253.7z"/>
	<path class="st3" d="M201.7,245h-45.5c-1.1,0-2-0.9-2-2s0.9-2,2-2h45.5c1.1,0,2,0.9,2,2S202.8,245,201.7,245z"/>
	<path class="st3" d="M94.8,165.2c-1,0-1.8-0.7-2-1.7c-0.2-1.1,0.6-2.1,1.7-2.3c6.7-0.9,7.1-3.6,7.1-6.5c-0.1-3.4-1.6-4.8-6.5-8.8
		c-2.4-2-5.5-4.5-9.2-8.2c-2.7-2.7-5.6-5.3-8.3-7.8c-9.6-8.8-18-16.3-17.6-25.3c0.2-4.7,2.5-13.4,9.6-15.7c7.5-2.5,13.5-0.1,16,6.3
		c0.4,1-0.1,2.2-1.2,2.6c-1,0.4-2.2-0.1-2.6-1.2c-1.2-3-4-6.2-11-3.9c-4.7,1.6-6.7,8.1-6.9,12.1c-0.3,7.1,7.4,14.1,16.2,22.1
		c2.8,2.5,5.6,5.1,8.4,7.9c3.6,3.5,6.6,6,8.9,8c4.9,4,7.8,6.4,7.9,11.8C105.5,160.8,102.1,164.1,94.8,165.2
		C95,165.2,94.9,165.2,94.8,165.2z"/>
	<path class="st3" d="M263,165.2c-0.1,0-0.2,0-0.3,0c-7.3-1-10.7-4.4-10.5-10.6c0.1-5.4,3.1-7.8,7.9-11.8c2.4-2,5.4-4.4,8.9-8
		c2.8-2.8,5.7-5.4,8.4-7.9c8.9-8.1,16.6-15,16.2-22.1c-0.2-4-2.2-10.6-6.9-12.1c-7-2.3-9.8,0.8-11,3.9c-0.4,1-1.6,1.5-2.6,1.2
		c-1-0.4-1.5-1.6-1.2-2.6c2.5-6.4,8.4-8.7,16-6.3c6.2,2.1,9.3,9.4,9.6,15.7c0.4,9-7.9,16.5-17.6,25.3c-2.7,2.5-5.6,5.1-8.3,7.8
		c-3.7,3.7-6.8,6.2-9.2,8.2c-4.8,4-6.4,5.4-6.5,8.8c-0.1,2.9,0.4,5.6,7.1,6.5c1.1,0.2,1.9,1.2,1.7,2.3
		C264.8,164.5,264,165.2,263,165.2z"/>
	<path class="st4" d="M167.2,177.6c-0.1,0-0.1,0-0.2,0c-19.9-1.7-35.9-14.3-46.1-36.5c-7.7-16.5-9.4-32.3-9.5-33
		c-0.1-1.1,0.7-2.1,1.8-2.2c1.1-0.1,2.1,0.7,2.2,1.8c0.1,0.6,7.4,62.2,52,65.9c1.1,0.1,1.9,1.1,1.8,2.2
		C169.1,176.8,168.2,177.6,167.2,177.6z"/>
	<path class="st1" d="M178.8,57c-1.1,0-2-0.9-2-2V1.5c0-1.1,0.9-2,2-2s2,0.9,2,2V55C180.8,56.1,179.9,57,178.8,57z"/>
	<path class="st1" d="M293.8,65.4c-0.5,0-1-0.2-1.4-0.6c-0.8-0.8-0.8-2,0-2.8l29.1-29.1c0.8-0.8,2-0.8,2.8,0s0.8,2,0,2.8l-29.1,29.1
		C294.8,65.2,294.3,65.4,293.8,65.4z"/>
	<path class="st1" d="M363.6,177h-43.4c-1.1,0-2-0.9-2-2s0.9-2,2-2h43.4c1.1,0,2,0.9,2,2S364.7,177,363.6,177z"/>
	<path class="st1" d="M301.7,265.1c-0.5,0-1-0.2-1.4-0.6l-27.2-27.2c-0.8-0.8-0.8-2,0-2.8s2-0.8,2.8,0l27.2,27.2
		c0.8,0.8,0.8,2,0,2.8C302.8,264.9,302.2,265.1,301.7,265.1z"/>
	<path class="st1" d="M180.7,320.6c-1.1,0-2-0.9-2-2v-33.8c0-1.1,0.9-2,2-2s2,0.9,2,2v33.8C182.7,319.7,181.8,320.6,180.7,320.6z"/>
	<path class="st1" d="M40.5,270.1c-0.5,0-1-0.2-1.4-0.6c-0.8-0.8-0.8-2,0-2.8l30.3-30.3c0.8-0.8,2-0.8,2.8,0s0.8,2,0,2.8l-30.3,30.3
		C41.5,269.9,41,270.1,40.5,270.1z"/>
	<path class="st1" d="M45.1,157.7H2.6c-1.1,0-2-0.9-2-2s0.9-2,2-2h42.5c1.1,0,2,0.9,2,2S46.2,157.7,45.1,157.7z"/>
	<path class="st1" d="M39.2,60.7c-0.5,0-1-0.2-1.4-0.6L11.5,33.9c-0.8-0.8-0.8-2,0-2.8c0.8-0.8,2-0.8,2.8,0l26.3,26.2
		c0.8,0.8,0.8,2,0,2.8C40.2,60.5,39.7,60.7,39.2,60.7z"/>
</g>
</svg>
