<svg version="1.1" xmlns="http://www.w3.org/2000/svg" viewBox="0 0 972 115">
	<path fill="none" stroke="#ffffff" stroke-width="4" stroke-linejoin="round" d="M124.6,14l-23.8,91H78.4L64.8,59.8L51.1,105H28.8
		L5,14h23.1l12.7,57.1l14.3-47.5h19.2l14.3,47.5L101.4,14H124.6z"/>
	<path fill="none" stroke="#ffffff" stroke-width="4" stroke-linejoin="round" d="M151.6,78.7c1.8,6.2,6.4,10,13,10
		c5.9,0,9.8-2,13.3-7.8l16.9,6c-5.5,12-15.2,19.1-31.1,19.1c-23.7,0-33-18.3-33-33.8c0-15.5,9.4-33.8,33-33.8
		c24.7,0,32.1,18.7,32.1,32.5v7.8H151.6z M151.9,63.9h23.8c-0.6-5.6-4.7-10-12-10C158.4,53.9,153.8,57,151.9,63.9z"/>
	<path fill="none" stroke="#ffffff" stroke-width="4" stroke-linejoin="round" d="M299.9,85.6h-24.2l-5.9,19.4H246l30.8-91h22.1
		l30.8,91h-23.9L299.9,85.6z M281.6,65.9h12.5l-6.2-21.3L281.6,65.9z"/>
	<path fill="none" stroke="#ffffff" stroke-width="4" stroke-linejoin="round" d="M346.2,105V39.5h21.3v7.2
		c3.4-4.9,10.5-8.2,18.2-8.2c3.4,0,6.4,0.8,8.6,1.8l-4.6,19.2c-2-1.2-4-1.8-6.8-1.8c-7.5,0-15.5,6.4-15.5,24.1V105H346.2z"/>
	<path fill="none" stroke="#ffffff" stroke-width="4" stroke-linejoin="round" d="M426.2,78.7c1.8,6.2,6.4,10,13,10
		c5.9,0,9.8-2,13.3-7.8l16.9,6c-5.5,12-15.2,19.1-31.1,19.1c-23.7,0-33-18.3-33-33.8c0-15.5,9.4-33.8,33-33.8
		c24.7,0,32.1,18.7,32.1,32.5v7.8H426.2z M426.4,63.9h23.8c-0.6-5.6-4.7-10-12-10C432.9,53.9,428.4,57,426.4,63.9z"/>
	<path fill="none" stroke="#ffffff" stroke-width="4" stroke-linejoin="round" d="M603.8,14v91h-22.5l-30-54.3V105h-20.8V14h22.5
		l30,54.3V14H603.8z"/>
	<path fill="none" stroke="#ffffff" stroke-width="4" stroke-linejoin="round" d="M627.7,57.2c2.5-10.5,11.8-18.7,26-18.7
		c17.9,0,28.9,7.9,28.9,27.4V105h-16.4l-1.4-7c-4.5,5.6-10.1,8.1-18.6,8.1c-11.2,0-20.8-6.9-20.8-19.9c0-13,9.4-21.5,27.6-21.5h10.4
		v-2.2c0-5.8-3.6-8.5-9.6-8.5c-4.6,0-8.1,2-9.6,7L627.7,57.2z M652.1,90c6.9,0,11.2-4.6,11.2-10.3V79H653c-4.9,0-7.8,2.5-7.8,5.9
		C645.2,88.4,648.1,90,652.1,90z"/>
	<path fill="none" stroke="#ffffff" stroke-width="4" stroke-linejoin="round" d="M746.1,102.9c-4,2-8.6,3.1-13.7,3.1
		c-14.8,0-26.1-7.9-26.1-24.2v-26H697V39.5h9.4V26l20.8-13v26.5h16.5v16.4h-16.5v22c0,6.2,2.6,9.5,7.4,9.5c2.2,0,4.8-0.4,7-1.6
		L746.1,102.9z"/>
	<path fill="none" stroke="#ffffff" stroke-width="4" stroke-linejoin="round" d="M774.7,6.3c7.3,0,12.7,5.6,12.7,12.7
		c0,7.1-5.5,12.7-12.7,12.7S762,26.2,762,19.1C762,11.9,767.4,6.3,774.7,6.3z M785.4,39.5V105H764V39.5H785.4z"/>
	<path fill="none" stroke="#ffffff" stroke-width="4" stroke-linejoin="round" d="M838,38.4c22.9,0,34.6,15.7,34.6,33.8
		c0,18.1-11.7,33.8-34.6,33.8s-34.6-15.7-34.6-33.8C803.4,54.2,815.1,38.4,838,38.4z M838,87.8c9.1,0,13.3-6.2,13.3-15.6
		c0-9.4-4.2-15.6-13.3-15.6s-13.3,6.2-13.3,15.6C824.7,81.6,828.9,87.8,838,87.8z"/>
	<path fill="none" stroke="#ffffff" stroke-width="4" stroke-linejoin="round" d="M913.8,39.5V47c3.5-5.1,10.5-8.6,18.6-8.6
		c15,0,21.8,7.9,21.8,21.6v45h-21.3V66.3c0-5.6-2.7-8.8-7.4-8.8c-7.2,0-11.7,6.5-11.7,18.9V105h-21.3V39.5H913.8z"/>
</svg>
