<?xml version="1.0" encoding="utf-8"?>
<!-- Generator: Adobe Illustrator 19.1.1, SVG Export Plug-In . SVG Version: 6.00 Build 0)  -->
<svg version="1.1" id="Layer_1" xmlns="http://www.w3.org/2000/svg" xmlns:xlink="http://www.w3.org/1999/xlink" x="0px" y="0px"
	 viewBox="0 0 55 37" enable-background="new 0 0 55 37" xml:space="preserve">
<g>
	<path d="M53.5,1c-0.3-0.1-7.8-2.2-26.4,0C9.2,3,1.9,1.2,1.8,1.2c-0.4-0.1-0.9,0-1.3,0.3C0.2,1.8,0,2.2,0,2.7v30.5
		c0,0.7,0.5,1.3,1.1,1.5c0.3,0.1,4.3,1.1,12.2,1.1c4.2,0,9.5-0.3,15.9-1.1c16.3-2.2,23.4-0.1,23.5-0.1c0.5,0.1,1,0.1,1.3-0.2
		c0.4-0.3,0.6-0.7,0.6-1.2V2.4C54.6,1.8,54.2,1.2,53.5,1z M42.2,26.7c-0.7,0-1.3,0-2,0c0-6.5,0-12.9,0-19.4c0.7,0,1.4,0,2.2,0
		c0.9,3.7,1.8,7.4,2.6,11.1c0-3.6,0-7.3,0-10.9c0.7,0.1,1.3,0.2,2,0.3c0,6.5,0,12.9,0,19.4c-0.6-0.1-1.1-0.2-1.7-0.2
		c-1-3.7-2-7.3-3.1-10.9C42.2,19.5,42.2,23.1,42.2,26.7z M39.1,10.2c0,4.5,0,9,0,13.5c0,2-1.5,3.2-3.2,3.4c-1.7,0.1-3.2-0.9-3.2-2.9
		c0-4.5,0-9,0-13.5c0-2,1.5-3.4,3.2-3.5C37.6,7,39.1,8.2,39.1,10.2z M31.5,7.9c0,6.5,0,12.9,0,19.4c-0.8,0.1-1.6,0.2-2.4,0.3
		c0-6.5,0-12.9,0-19.4C29.8,8.1,30.6,7.9,31.5,7.9z M7.9,9c0.7,0.1,1.4,0.2,2.2,0.3c0.9,3.7,1.7,7.4,2.6,11.1c0-3.6,0-7.3,0-10.9
		c0.7,0,1.3,0,2,0c0,6.5,0,12.9,0,19.4c-0.6,0-1.1,0-1.7,0c-1-3.6-2-7.2-3.1-10.9c0,3.6,0,7.1,0,10.7c-0.7-0.1-1.3-0.2-2-0.3
		C7.9,22,7.9,15.5,7.9,9z M15.8,28.9c0.6-6.5,1.2-13,1.7-19.5c1-0.1,2.1-0.1,3.1-0.2c0.6,6.4,1.2,12.8,1.8,19.2
		c-0.8,0.1-1.6,0.2-2.5,0.2c-0.1-1.2-0.1-2.4-0.2-3.6c-0.5,0-1.1,0.1-1.6,0.1c-0.1,1.2-0.2,2.4-0.2,3.7
		C17.2,28.8,16.5,28.9,15.8,28.9z M28,10.6c-0.5,0.1-1.1,0.1-1.6,0.2c0,5.7,0,11.4,0,17.1c-0.8,0.1-1.6,0.2-2.4,0.3
		c0-5.7,0-11.4,0-17.1c-0.6,0.1-1.2,0.1-1.8,0.2c0-0.8,0-1.6,0-2.3C24.1,8.8,26,8.5,28,8.3C28,9.1,28,9.8,28,10.6z"/>
	<path d="M19,14.6c-0.2,2.8-0.5,5.6-0.7,8.3c0.4,0,0.9-0.1,1.3-0.1C19.4,20.1,19.2,17.3,19,14.6z"/>
	<path d="M35.1,10.1c0,4.7,0,9.4,0,14.1c0,0.5,0.2,0.8,0.8,0.7c0.5,0,0.7-0.3,0.7-0.8c0-4.7,0-9.4,0-14.1c0-0.5-0.2-0.8-0.7-0.7
		C35.3,9.3,35.1,9.6,35.1,10.1z"/>
</g>
</svg>
