<?xml version="1.0" encoding="utf-8"?>
<!-- Generator: Adobe Illustrator 19.1.1, SVG Export Plug-In . SVG Version: 6.00 Build 0)  -->
<svg version="1.1" id="Layer_1" xmlns="http://www.w3.org/2000/svg" xmlns:xlink="http://www.w3.org/1999/xlink" x="0px" y="0px"
	 viewBox="0 0 60 67" enable-background="new 0 0 60 67" xml:space="preserve">
<g>
	<g>
		<path fill="none" stroke="#3E5AA9" stroke-width="3" stroke-linejoin="round" stroke-miterlimit="10" d="M30.1,20
			c-11,0-20.4,5.1-24.4,12.5C9.6,39.9,19,45.1,30,45.1S50.4,40,54.4,32.6C50.5,25.2,41.1,20,30.1,20z"/>
		
			<line fill="none" stroke="#3E5AA9" stroke-width="3" stroke-linecap="round" stroke-linejoin="round" stroke-miterlimit="10" x1="30.1" y1="12.1" x2="30.1" y2="1.8"/>
		
			<line fill="none" stroke="#3E5AA9" stroke-width="3" stroke-linecap="round" stroke-linejoin="round" stroke-miterlimit="10" x1="9.4" y1="19.4" x2="2.1" y2="12"/>
		
			<line fill="none" stroke="#3E5AA9" stroke-width="3" stroke-linecap="round" stroke-linejoin="round" stroke-miterlimit="10" x1="50.8" y1="19.5" x2="58.1" y2="12.2"/>
		
			<line fill="none" stroke="#3E5AA9" stroke-width="3" stroke-linecap="round" stroke-linejoin="round" stroke-miterlimit="10" x1="30" y1="54.7" x2="29.9" y2="65"/>
		
			<line fill="none" stroke="#3E5AA9" stroke-width="3" stroke-linecap="round" stroke-linejoin="round" stroke-miterlimit="10" x1="50.7" y1="47.4" x2="58" y2="54.8"/>
		
			<line fill="none" stroke="#3E5AA9" stroke-width="3" stroke-linecap="round" stroke-linejoin="round" stroke-miterlimit="10" x1="9.3" y1="47.3" x2="1.9" y2="54.6"/>
		
			<ellipse transform="matrix(1 3.164576e-003 -3.164576e-003 1 0.1027 -9.485847e-002)" fill="none" stroke="#3E5AA9" stroke-width="3" stroke-linecap="round" stroke-linejoin="round" stroke-miterlimit="10" cx="30" cy="32.4" rx="8" ry="8"/>
		
			<ellipse transform="matrix(1 3.164576e-003 -3.164576e-003 1 0.1027 -9.485860e-002)" fill="none" stroke="#3E5AA9" stroke-width="3" stroke-linecap="round" stroke-linejoin="round" stroke-miterlimit="10" cx="30" cy="32.4" rx="3.4" ry="3.4"/>
	</g>
</g>
</svg>
